# xmcd
#
# Track frame offsets:
#	150
#	16902
#	34301
#	51251
#	69914
#	91267
#	106244
#	123047
#	139578
#	156413
#
# Disc length: 2302 seconds
#
# Revision: 0
# Processed by: cddbd v1.5.2PL0 Copyright (c) Steve Scherf et al.
# Submitted via: audiograbber 1.82.01
#
DISCID=7a08fc0a
DTITLE=Monica - The Making Of Me
DYEAR=2006
DGENRE=R&B
TTITLE0=Everytime Tha Beat Drop - (with Dem Franchize Boyz)
TTITLE1=A Dozen Roses (You Remind Me)
TTITLE2=Sideline Ho  
TTITLE3=Why Her
TTITLE4=Hell No (Leave Home) - (with Twista)
TTITLE5=Doin' Me Right  
TTITLE6=Raw - (with Swizz Beatz)
TTITLE7=My Everything  
TTITLE8=Getaway
TTITLE9=Gotta Move On
EXTD=
EXTT0=
EXTT1=
EXTT2=
EXTT3=
EXTT4=
EXTT5=
EXTT6=
EXTT7=
EXTT8=
EXTT9=
PLAYORDER=
